STARTFONT 2.1
FONT -Monotype-Courier-Regular-R-Normal--8-80-75-75-M-38-iso8859-7
SIZE 8 75 75
FONTBOUNDINGBOX 6 9 -1 -2

STARTPROPERTIES 24
FOUNDRY "Monotype"
FAMILY_NAME "Courier"
WEIGHT_NAME "Regular"
SLANT "R"
SETWIDTH_NAME "Normal"
ADD_STYLE_NAME ""
PIXEL_SIZE 8
POINT_SIZE 80
RESOLUTION_X 75
RESOLUTION_Y 75
SPACING "M"
AVERAGE_WIDTH 38
CHARSET_REGISTRY "iso8859"
CHARSET_ENCODING "7"
FACE_NAME "Courier ISO Latin Greek"
_DEC_DEVICE_FONTNAMES "PS=courier-latgreek"
COPYRIGHT "Copyright (c) 1994 Monotype Typography Ltd."
CAP_HEIGHT 5
X_HEIGHT 3
WEIGHT 10
QUAD_WIDTH 5
DEFAULT_CHAR 160
FONT_DESCENT 2
FONT_ASCENT 7
ENDPROPERTIES

CHARS 185

STARTCHAR space
ENCODING 32
SWIDTH 600 0
DWIDTH 5 0
BBX 0 0 0 0
BITMAP
ENDCHAR

STARTCHAR exclam
ENCODING 33
SWIDTH 600 0
DWIDTH 5 0
BBX 1 6 2 0
BITMAP
80
80
80
80
00
80
ENDCHAR

STARTCHAR quotedbl
ENCODING 34
SWIDTH 600 0
DWIDTH 5 0
BBX 3 3 1 3
BITMAP
A0
A0
A0
ENDCHAR

STARTCHAR numbersign
ENCODING 35
SWIDTH 600 0
DWIDTH 5 0
BBX 5 7 0 -1
BITMAP
50
50
F8
50
F8
50
50
ENDCHAR

STARTCHAR dollar
ENCODING 36
SWIDTH 600 0
DWIDTH 5 0
BBX 3 7 1 -1
BITMAP
40
60
80
40
20
C0
40
ENDCHAR

STARTCHAR percent
ENCODING 37
SWIDTH 600 0
DWIDTH 5 0
BBX 4 5 1 0
BITMAP
C0
90
60
B0
10
ENDCHAR

STARTCHAR ampersand
ENCODING 38
SWIDTH 600 0
DWIDTH 5 0
BBX 4 5 1 0
BITMAP
20
40
50
A0
70
ENDCHAR

STARTCHAR quoteright
ENCODING 39
SWIDTH 600 0
DWIDTH 5 0
BBX 2 2 1 4
BITMAP
40
80
ENDCHAR

STARTCHAR parenleft
ENCODING 40
SWIDTH 600 0
DWIDTH 5 0
BBX 2 8 1 -2
BITMAP
40
40
80
80
80
80
40
40
ENDCHAR

STARTCHAR parenright
ENCODING 41
SWIDTH 600 0
DWIDTH 5 0
BBX 2 8 1 -2
BITMAP
80
80
40
40
40
40
80
80
ENDCHAR

STARTCHAR asterisk
ENCODING 42
SWIDTH 600 0
DWIDTH 5 0
BBX 3 4 1 2
BITMAP
40
E0
40
A0
ENDCHAR

STARTCHAR plus
ENCODING 43
SWIDTH 600 0
DWIDTH 5 0
BBX 3 3 1 1
BITMAP
40
E0
40
ENDCHAR

STARTCHAR comma
ENCODING 44
SWIDTH 600 0
DWIDTH 5 0
BBX 2 2 1 -1
BITMAP
40
80
ENDCHAR

STARTCHAR minus
ENCODING 45
SWIDTH 600 0
DWIDTH 5 0
BBX 3 1 1 2
BITMAP
E0
ENDCHAR

STARTCHAR period
ENCODING 46
SWIDTH 600 0
DWIDTH 5 0
BBX 1 1 2 0
BITMAP
80
ENDCHAR

STARTCHAR slash
ENCODING 47
SWIDTH 600 0
DWIDTH 5 0
BBX 3 7 1 -1
BITMAP
20
20
40
40
40
80
80
ENDCHAR

STARTCHAR zero
ENCODING 48
SWIDTH 600 0
DWIDTH 5 0
BBX 4 5 1 0
BITMAP
60
90
90
90
60
ENDCHAR

STARTCHAR one
ENCODING 49
SWIDTH 600 0
DWIDTH 5 0
BBX 3 5 1 0
BITMAP
C0
40
40
40
E0
ENDCHAR

STARTCHAR two
ENCODING 50
SWIDTH 600 0
DWIDTH 5 0
BBX 3 5 1 0
BITMAP
C0
20
40
80
E0
ENDCHAR

STARTCHAR three
ENCODING 51
SWIDTH 600 0
DWIDTH 5 0
BBX 4 5 1 0
BITMAP
E0
10
60
10
E0
ENDCHAR

STARTCHAR four
ENCODING 52
SWIDTH 600 0
DWIDTH 5 0
BBX 4 5 1 0
BITMAP
20
60
A0
F0
20
ENDCHAR

STARTCHAR five
ENCODING 53
SWIDTH 600 0
DWIDTH 5 0
BBX 4 5 1 0
BITMAP
E0
80
E0
10
E0
ENDCHAR

STARTCHAR six
ENCODING 54
SWIDTH 600 0
DWIDTH 5 0
BBX 4 5 1 0
BITMAP
70
80
E0
90
60
ENDCHAR

STARTCHAR seven
ENCODING 55
SWIDTH 600 0
DWIDTH 5 0
BBX 4 5 1 0
BITMAP
F0
90
10
20
20
ENDCHAR

STARTCHAR eight
ENCODING 56
SWIDTH 600 0
DWIDTH 5 0
BBX 4 5 1 0
BITMAP
60
90
60
90
60
ENDCHAR

STARTCHAR nine
ENCODING 57
SWIDTH 600 0
DWIDTH 5 0
BBX 4 5 1 0
BITMAP
60
90
70
10
E0
ENDCHAR

STARTCHAR colon
ENCODING 58
SWIDTH 600 0
DWIDTH 5 0
BBX 1 4 2 0
BITMAP
80
00
00
80
ENDCHAR

STARTCHAR semicolon
ENCODING 59
SWIDTH 600 0
DWIDTH 5 0
BBX 2 5 1 -1
BITMAP
40
00
00
40
80
ENDCHAR

STARTCHAR less
ENCODING 60
SWIDTH 600 0
DWIDTH 5 0
BBX 4 5 1 0
BITMAP
10
60
80
60
10
ENDCHAR

STARTCHAR equal
ENCODING 61
SWIDTH 600 0
DWIDTH 5 0
BBX 4 3 1 1
BITMAP
F0
00
F0
ENDCHAR

STARTCHAR greater
ENCODING 62
SWIDTH 600 0
DWIDTH 5 0
BBX 4 5 1 0
BITMAP
80
60
10
60
80
ENDCHAR

STARTCHAR question
ENCODING 63
SWIDTH 600 0
DWIDTH 5 0
BBX 3 6 1 0
BITMAP
C0
20
20
40
00
40
ENDCHAR

STARTCHAR at
ENCODING 64
SWIDTH 600 0
DWIDTH 5 0
BBX 3 6 1 -1
BITMAP
40
A0
E0
A0
80
60
ENDCHAR

STARTCHAR A
ENCODING 65
SWIDTH 600 0
DWIDTH 5 0
BBX 5 5 0 0
BITMAP
60
20
50
70
D8
ENDCHAR

STARTCHAR B
ENCODING 66
SWIDTH 600 0
DWIDTH 5 0
BBX 4 5 1 0
BITMAP
E0
50
60
50
E0
ENDCHAR

STARTCHAR C
ENCODING 67
SWIDTH 600 0
DWIDTH 5 0
BBX 4 5 1 0
BITMAP
60
90
80
90
60
ENDCHAR

STARTCHAR D
ENCODING 68
SWIDTH 600 0
DWIDTH 5 0
BBX 4 5 1 0
BITMAP
E0
50
50
50
E0
ENDCHAR

STARTCHAR E
ENCODING 69
SWIDTH 600 0
DWIDTH 5 0
BBX 4 5 1 0
BITMAP
F0
50
60
50
F0
ENDCHAR

STARTCHAR F
ENCODING 70
SWIDTH 600 0
DWIDTH 5 0
BBX 4 5 1 0
BITMAP
F0
50
60
40
E0
ENDCHAR

STARTCHAR G
ENCODING 71
SWIDTH 600 0
DWIDTH 5 0
BBX 4 5 1 0
BITMAP
70
80
B0
90
60
ENDCHAR

STARTCHAR H
ENCODING 72
SWIDTH 600 0
DWIDTH 5 0
BBX 5 5 0 0
BITMAP
D8
50
70
50
D8
ENDCHAR

STARTCHAR I
ENCODING 73
SWIDTH 600 0
DWIDTH 5 0
BBX 3 5 1 0
BITMAP
E0
40
40
40
E0
ENDCHAR

STARTCHAR J
ENCODING 74
SWIDTH 600 0
DWIDTH 5 0
BBX 4 5 1 0
BITMAP
70
20
20
A0
C0
ENDCHAR

STARTCHAR K
ENCODING 75
SWIDTH 600 0
DWIDTH 5 0
BBX 5 5 0 0
BITMAP
D8
50
60
50
D8
ENDCHAR

STARTCHAR L
ENCODING 76
SWIDTH 600 0
DWIDTH 5 0
BBX 4 5 1 0
BITMAP
E0
40
40
50
F0
ENDCHAR

STARTCHAR M
ENCODING 77
SWIDTH 600 0
DWIDTH 5 0
BBX 5 5 0 0
BITMAP
88
D8
A8
88
88
ENDCHAR

STARTCHAR N
ENCODING 78
SWIDTH 600 0
DWIDTH 5 0
BBX 4 5 1 0
BITMAP
90
D0
B0
90
90
ENDCHAR

STARTCHAR O
ENCODING 79
SWIDTH 600 0
DWIDTH 5 0
BBX 4 5 1 0
BITMAP
60
90
90
90
60
ENDCHAR

STARTCHAR P
ENCODING 80
SWIDTH 600 0
DWIDTH 5 0
BBX 4 5 1 0
BITMAP
E0
50
60
40
E0
ENDCHAR

STARTCHAR Q
ENCODING 81
SWIDTH 600 0
DWIDTH 5 0
BBX 4 7 1 -2
BITMAP
60
90
90
90
60
40
30
ENDCHAR

STARTCHAR R
ENCODING 82
SWIDTH 600 0
DWIDTH 5 0
BBX 4 5 1 0
BITMAP
E0
50
60
50
D0
ENDCHAR

STARTCHAR S
ENCODING 83
SWIDTH 600 0
DWIDTH 5 0
BBX 4 5 1 0
BITMAP
70
80
60
10
E0
ENDCHAR

STARTCHAR T
ENCODING 84
SWIDTH 600 0
DWIDTH 5 0
BBX 5 5 0 0
BITMAP
F8
A8
20
20
70
ENDCHAR

STARTCHAR U
ENCODING 85
SWIDTH 600 0
DWIDTH 5 0
BBX 4 5 1 0
BITMAP
90
90
90
90
60
ENDCHAR

STARTCHAR V
ENCODING 86
SWIDTH 600 0
DWIDTH 5 0
BBX 5 5 0 0
BITMAP
D8
50
50
20
20
ENDCHAR

STARTCHAR W
ENCODING 87
SWIDTH 600 0
DWIDTH 5 0
BBX 5 5 0 0
BITMAP
D8
88
A8
50
50
ENDCHAR

STARTCHAR X
ENCODING 88
SWIDTH 600 0
DWIDTH 5 0
BBX 5 5 0 0
BITMAP
D8
50
20
50
D8
ENDCHAR

STARTCHAR Y
ENCODING 89
SWIDTH 600 0
DWIDTH 5 0
BBX 5 5 0 0
BITMAP
D8
50
20
20
70
ENDCHAR

STARTCHAR Z
ENCODING 90
SWIDTH 600 0
DWIDTH 5 0
BBX 4 5 1 0
BITMAP
F0
A0
40
50
F0
ENDCHAR

STARTCHAR bracketleft
ENCODING 91
SWIDTH 600 0
DWIDTH 5 0
BBX 2 7 1 -1
BITMAP
C0
80
80
80
80
80
C0
ENDCHAR

STARTCHAR backslash
ENCODING 92
SWIDTH 600 0
DWIDTH 5 0
BBX 3 7 1 -1
BITMAP
80
80
40
40
40
20
20
ENDCHAR

STARTCHAR bracketright
ENCODING 93
SWIDTH 600 0
DWIDTH 5 0
BBX 2 7 1 -1
BITMAP
C0
40
40
40
40
40
C0
ENDCHAR

STARTCHAR asciicircum
ENCODING 94
SWIDTH 600 0
DWIDTH 5 0
BBX 3 2 1 3
BITMAP
40
A0
ENDCHAR

STARTCHAR underscore
ENCODING 95
SWIDTH 600 0
DWIDTH 5 0
BBX 5 1 0 -1
BITMAP
F8
ENDCHAR

STARTCHAR quoteleft
ENCODING 96
SWIDTH 600 0
DWIDTH 5 0
BBX 2 2 1 4
BITMAP
80
40
ENDCHAR

STARTCHAR a
ENCODING 97
SWIDTH 600 0
DWIDTH 5 0
BBX 4 4 1 0
BITMAP
C0
60
A0
F0
ENDCHAR

STARTCHAR b
ENCODING 98
SWIDTH 600 0
DWIDTH 5 0
BBX 4 6 1 0
BITMAP
C0
40
60
50
50
E0
ENDCHAR

STARTCHAR c
ENCODING 99
SWIDTH 600 0
DWIDTH 5 0
BBX 4 4 1 0
BITMAP
70
80
80
70
ENDCHAR

STARTCHAR d
ENCODING 100
SWIDTH 600 0
DWIDTH 5 0
BBX 4 6 1 0
BITMAP
60
20
60
A0
A0
70
ENDCHAR

STARTCHAR e
ENCODING 101
SWIDTH 600 0
DWIDTH 5 0
BBX 4 4 1 0
BITMAP
60
90
E0
70
ENDCHAR

STARTCHAR f
ENCODING 102
SWIDTH 600 0
DWIDTH 5 0
BBX 4 6 1 0
BITMAP
30
40
E0
40
40
E0
ENDCHAR

STARTCHAR g
ENCODING 103
SWIDTH 600 0
DWIDTH 5 0
BBX 4 6 1 -2
BITMAP
70
A0
A0
60
20
C0
ENDCHAR

STARTCHAR h
ENCODING 104
SWIDTH 600 0
DWIDTH 5 0
BBX 5 6 0 0
BITMAP
C0
40
70
50
50
D8
ENDCHAR

STARTCHAR i
ENCODING 105
SWIDTH 600 0
DWIDTH 5 0
BBX 3 6 1 0
BITMAP
40
00
C0
40
40
E0
ENDCHAR

STARTCHAR j
ENCODING 106
SWIDTH 600 0
DWIDTH 5 0
BBX 2 8 1 -2
BITMAP
40
00
C0
40
40
40
40
80
ENDCHAR

STARTCHAR k
ENCODING 107
SWIDTH 600 0
DWIDTH 5 0
BBX 4 6 1 0
BITMAP
C0
40
50
60
50
D0
ENDCHAR

STARTCHAR l
ENCODING 108
SWIDTH 600 0
DWIDTH 5 0
BBX 3 6 1 0
BITMAP
C0
40
40
40
40
E0
ENDCHAR

STARTCHAR m
ENCODING 109
SWIDTH 600 0
DWIDTH 5 0
BBX 5 4 0 0
BITMAP
D0
A8
A8
A8
ENDCHAR

STARTCHAR n
ENCODING 110
SWIDTH 600 0
DWIDTH 5 0
BBX 5 4 0 0
BITMAP
F0
50
50
D8
ENDCHAR

STARTCHAR o
ENCODING 111
SWIDTH 600 0
DWIDTH 5 0
BBX 4 4 1 0
BITMAP
60
90
90
60
ENDCHAR

STARTCHAR p
ENCODING 112
SWIDTH 600 0
DWIDTH 5 0
BBX 4 6 1 -2
BITMAP
E0
50
50
60
40
E0
ENDCHAR

STARTCHAR q
ENCODING 113
SWIDTH 600 0
DWIDTH 5 0
BBX 4 6 1 -2
BITMAP
70
A0
A0
60
20
70
ENDCHAR

STARTCHAR r
ENCODING 114
SWIDTH 600 0
DWIDTH 5 0
BBX 4 4 1 0
BITMAP
B0
40
40
E0
ENDCHAR

STARTCHAR s
ENCODING 115
SWIDTH 600 0
DWIDTH 5 0
BBX 4 4 1 0
BITMAP
70
C0
30
E0
ENDCHAR

STARTCHAR t
ENCODING 116
SWIDTH 600 0
DWIDTH 5 0
BBX 4 5 1 0
BITMAP
40
F0
40
40
30
ENDCHAR

STARTCHAR u
ENCODING 117
SWIDTH 600 0
DWIDTH 5 0
BBX 5 4 0 0
BITMAP
D8
50
50
38
ENDCHAR

STARTCHAR v
ENCODING 118
SWIDTH 600 0
DWIDTH 5 0
BBX 5 4 0 0
BITMAP
D8
50
20
20
ENDCHAR

STARTCHAR w
ENCODING 119
SWIDTH 600 0
DWIDTH 5 0
BBX 5 4 0 0
BITMAP
88
A8
70
50
ENDCHAR

STARTCHAR x
ENCODING 120
SWIDTH 600 0
DWIDTH 5 0
BBX 5 4 0 0
BITMAP
D8
60
70
98
ENDCHAR

STARTCHAR y
ENCODING 121
SWIDTH 600 0
DWIDTH 5 0
BBX 5 6 0 -2
BITMAP
D8
50
60
20
40
C0
ENDCHAR

STARTCHAR z
ENCODING 122
SWIDTH 600 0
DWIDTH 5 0
BBX 4 4 1 0
BITMAP
F0
20
40
F0
ENDCHAR

STARTCHAR braceleft
ENCODING 123
SWIDTH 600 0
DWIDTH 5 0
BBX 3 7 1 -1
BITMAP
20
40
40
80
40
40
20
ENDCHAR

STARTCHAR bar
ENCODING 124
SWIDTH 600 0
DWIDTH 5 0
BBX 1 7 2 -1
BITMAP
80
80
80
80
80
80
80
ENDCHAR

STARTCHAR braceright
ENCODING 125
SWIDTH 600 0
DWIDTH 5 0
BBX 3 7 1 -1
BITMAP
80
40
40
20
40
40
80
ENDCHAR

STARTCHAR asciitilde
ENCODING 126
SWIDTH 600 0
DWIDTH 5 0
BBX 4 2 1 2
BITMAP
50
A0
ENDCHAR

STARTCHAR space
ENCODING 160
SWIDTH 600 0
DWIDTH 5 0
BBX 0 0 0 0
BITMAP
ENDCHAR

STARTCHAR quoteleft
ENCODING 161
SWIDTH 600 0
DWIDTH 5 0
BBX 2 2 1 4
BITMAP
80
40
ENDCHAR

STARTCHAR quoteright
ENCODING 162
SWIDTH 600 0
DWIDTH 5 0
BBX 2 2 1 4
BITMAP
40
80
ENDCHAR

STARTCHAR sterling
ENCODING 163
SWIDTH 600 0
DWIDTH 5 0
BBX 4 5 1 0
BITMAP
30
40
E0
40
F0
ENDCHAR

STARTCHAR brokenbar
ENCODING 166
SWIDTH 600 0
DWIDTH 5 0
BBX 1 6 2 -1
BITMAP
80
80
00
00
80
80
ENDCHAR

STARTCHAR section
ENCODING 167
SWIDTH 600 0
DWIDTH 5 0
BBX 4 6 1 -1
BITMAP
60
40
A0
50
20
60
ENDCHAR

STARTCHAR dieresis
ENCODING 168
SWIDTH 600 0
DWIDTH 5 0
BBX 3 1 1 5
BITMAP
A0
ENDCHAR

STARTCHAR copyright
ENCODING 169
SWIDTH 600 0
DWIDTH 5 0
BBX 5 5 0 0
BITMAP
20
70
C8
70
20
ENDCHAR

STARTCHAR guillemotleft
ENCODING 171
SWIDTH 600 0
DWIDTH 5 0
BBX 4 3 1 0
BITMAP
50
A0
50
ENDCHAR

STARTCHAR logicalnot
ENCODING 172
SWIDTH 600 0
DWIDTH 5 0
BBX 4 2 1 1
BITMAP
F0
10
ENDCHAR

STARTCHAR hyphen
ENCODING 173
SWIDTH 600 0
DWIDTH 5 0
BBX 3 1 1 2
BITMAP
E0
ENDCHAR

STARTCHAR endash
ENCODING 175
SWIDTH 600 0
DWIDTH 5 0
BBX 3 1 1 2
BITMAP
E0
ENDCHAR

STARTCHAR degree
ENCODING 176
SWIDTH 600 0
DWIDTH 5 0
BBX 3 3 1 3
BITMAP
40
A0
40
ENDCHAR

STARTCHAR plusminus
ENCODING 177
SWIDTH 600 0
DWIDTH 5 0
BBX 3 5 1 0
BITMAP
40
E0
40
00
E0
ENDCHAR

STARTCHAR twosuperior
ENCODING 178
SWIDTH 600 0
DWIDTH 5 0
BBX 2 3 1 2
BITMAP
80
40
C0
ENDCHAR

STARTCHAR threesuperior
ENCODING 179
SWIDTH 600 0
DWIDTH 5 0
BBX 2 3 2 2
BITMAP
C0
40
80
ENDCHAR

STARTCHAR acute
ENCODING 180
SWIDTH 600 0
DWIDTH 5 0
BBX 2 2 1 5
BITMAP
40
80
ENDCHAR

STARTCHAR dieresisacute
ENCODING 181
SWIDTH 600 0
DWIDTH 5 0
BBX 5 2 0 5
BITMAP
10
A8
ENDCHAR

STARTCHAR afii9936
ENCODING 182
SWIDTH 600 0
DWIDTH 5 0
BBX 6 5 -1 0
BITMAP
50
90
28
38
6C
ENDCHAR

STARTCHAR periodcentered
ENCODING 183
SWIDTH 600 0
DWIDTH 5 0
BBX 1 1 2 2
BITMAP
80
ENDCHAR

STARTCHAR afii9937
ENCODING 184
SWIDTH 600 0
DWIDTH 5 0
BBX 6 5 -1 0
BITMAP
7C
94
18
14
3C
ENDCHAR

STARTCHAR afii9938
ENCODING 185
SWIDTH 600 0
DWIDTH 5 0
BBX 6 5 -1 0
BITMAP
6C
A8
38
28
6C
ENDCHAR

STARTCHAR afii9939
ENCODING 186
SWIDTH 600 0
DWIDTH 5 0
BBX 5 5 0 0
BITMAP
78
90
10
10
38
ENDCHAR

STARTCHAR guillemotright
ENCODING 187
SWIDTH 600 0
DWIDTH 5 0
BBX 4 3 1 0
BITMAP
A0
50
A0
ENDCHAR

STARTCHAR afii9940
ENCODING 188
SWIDTH 600 0
DWIDTH 5 0
BBX 5 5 0 0
BITMAP
B0
C8
48
48
30
ENDCHAR

STARTCHAR onehalf
ENCODING 189
SWIDTH 600 0
DWIDTH 5 0
BBX 5 5 0 0
BITMAP
80
90
B0
48
18
ENDCHAR

STARTCHAR afii9941
ENCODING 190
SWIDTH 600 0
DWIDTH 5 0
BBX 5 5 0 0
BITMAP
68
A8
10
10
38
ENDCHAR

STARTCHAR afii9942
ENCODING 191
SWIDTH 600 0
DWIDTH 5 0
BBX 6 5 -1 0
BITMAP
58
A4
24
18
3C
ENDCHAR

STARTCHAR afii9977
ENCODING 192
SWIDTH 600 0
DWIDTH 5 0
BBX 5 7 0 0
BITMAP
10
A8
00
20
20
20
30
ENDCHAR

STARTCHAR afii9793
ENCODING 193
SWIDTH 600 0
DWIDTH 5 0
BBX 5 5 0 0
BITMAP
60
20
50
70
D8
ENDCHAR

STARTCHAR afii9794
ENCODING 194
SWIDTH 600 0
DWIDTH 5 0
BBX 4 5 1 0
BITMAP
E0
50
60
50
E0
ENDCHAR

STARTCHAR afii9796
ENCODING 195
SWIDTH 600 0
DWIDTH 5 0
BBX 4 5 1 0
BITMAP
F0
50
40
40
E0
ENDCHAR

STARTCHAR afii9797
ENCODING 196
SWIDTH 600 0
DWIDTH 5 0
BBX 5 5 0 0
BITMAP
20
20
50
50
F8
ENDCHAR

STARTCHAR afii9798
ENCODING 197
SWIDTH 600 0
DWIDTH 5 0
BBX 4 5 1 0
BITMAP
F0
50
60
50
F0
ENDCHAR

STARTCHAR afii9801
ENCODING 198
SWIDTH 600 0
DWIDTH 5 0
BBX 4 5 1 0
BITMAP
F0
A0
40
50
F0
ENDCHAR

STARTCHAR afii9802
ENCODING 199
SWIDTH 600 0
DWIDTH 5 0
BBX 5 5 0 0
BITMAP
D8
50
70
50
D8
ENDCHAR

STARTCHAR afii9803
ENCODING 200
SWIDTH 600 0
DWIDTH 5 0
BBX 4 5 1 0
BITMAP
60
90
F0
90
60
ENDCHAR

STARTCHAR afii9804
ENCODING 201
SWIDTH 600 0
DWIDTH 5 0
BBX 3 5 1 0
BITMAP
E0
40
40
40
E0
ENDCHAR

STARTCHAR afii9805
ENCODING 202
SWIDTH 600 0
DWIDTH 5 0
BBX 5 5 0 0
BITMAP
D8
50
60
50
D8
ENDCHAR

STARTCHAR afii9806
ENCODING 203
SWIDTH 600 0
DWIDTH 5 0
BBX 5 5 0 0
BITMAP
60
20
50
50
D8
ENDCHAR

STARTCHAR afii9807
ENCODING 204
SWIDTH 600 0
DWIDTH 5 0
BBX 5 5 0 0
BITMAP
88
D8
A8
88
88
ENDCHAR

STARTCHAR afii9808
ENCODING 205
SWIDTH 600 0
DWIDTH 5 0
BBX 4 5 1 0
BITMAP
90
D0
B0
90
90
ENDCHAR

STARTCHAR afii9809
ENCODING 206
SWIDTH 600 0
DWIDTH 5 0
BBX 4 5 1 0
BITMAP
F0
90
60
90
F0
ENDCHAR

STARTCHAR afii9810
ENCODING 207
SWIDTH 600 0
DWIDTH 5 0
BBX 4 5 1 0
BITMAP
60
90
90
90
60
ENDCHAR

STARTCHAR afii9811
ENCODING 208
SWIDTH 600 0
DWIDTH 5 0
BBX 5 5 0 0
BITMAP
F8
50
50
50
D8
ENDCHAR

STARTCHAR afii9813
ENCODING 209
SWIDTH 600 0
DWIDTH 5 0
BBX 4 5 1 0
BITMAP
E0
50
60
40
E0
ENDCHAR

STARTCHAR afii9814
ENCODING 211
SWIDTH 600 0
DWIDTH 5 0
BBX 4 5 1 0
BITMAP
F0
90
40
90
F0
ENDCHAR

STARTCHAR afii9816
ENCODING 212
SWIDTH 600 0
DWIDTH 5 0
BBX 5 5 0 0
BITMAP
F8
A8
20
20
70
ENDCHAR

STARTCHAR afii9817
ENCODING 213
SWIDTH 600 0
DWIDTH 5 0
BBX 5 5 0 0
BITMAP
D8
50
20
20
70
ENDCHAR

STARTCHAR afii9818
ENCODING 214
SWIDTH 600 0
DWIDTH 5 0
BBX 5 5 0 0
BITMAP
20
70
A8
70
20
ENDCHAR

STARTCHAR afii9819
ENCODING 215
SWIDTH 600 0
DWIDTH 5 0
BBX 5 5 0 0
BITMAP
D8
50
20
50
D8
ENDCHAR

STARTCHAR afii9820
ENCODING 216
SWIDTH 600 0
DWIDTH 5 0
BBX 5 5 0 0
BITMAP
A8
A8
70
20
70
ENDCHAR

STARTCHAR afii9821
ENCODING 217
SWIDTH 600 0
DWIDTH 5 0
BBX 4 5 1 0
BITMAP
60
90
90
60
F0
ENDCHAR

STARTCHAR afii9943
ENCODING 218
SWIDTH 600 0
DWIDTH 5 0
BBX 3 7 1 0
BITMAP
A0
00
E0
40
40
40
E0
ENDCHAR

STARTCHAR afii9944
ENCODING 219
SWIDTH 600 0
DWIDTH 5 0
BBX 5 7 0 0
BITMAP
50
00
D8
50
20
20
70
ENDCHAR

STARTCHAR afii9968
ENCODING 220
SWIDTH 600 0
DWIDTH 5 0
BBX 5 7 0 0
BITMAP
10
20
00
68
90
90
68
ENDCHAR

STARTCHAR afii9969
ENCODING 221
SWIDTH 600 0
DWIDTH 5 0
BBX 4 7 1 0
BITMAP
20
40
00
F0
40
90
60
ENDCHAR

STARTCHAR afii9970
ENCODING 222
SWIDTH 600 0
DWIDTH 5 0
BBX 4 9 0 -2
BITMAP
10
20
00
F0
50
50
D0
10
10
ENDCHAR

STARTCHAR afii9971
ENCODING 223
SWIDTH 600 0
DWIDTH 5 0
BBX 2 7 2 0
BITMAP
40
80
00
80
80
80
C0
ENDCHAR

STARTCHAR afii9978
ENCODING 224
SWIDTH 600 0
DWIDTH 5 0
BBX 5 7 0 0
BITMAP
10
A8
00
48
48
48
30
ENDCHAR

STARTCHAR afii9825
ENCODING 225
SWIDTH 600 0
DWIDTH 5 0
BBX 5 4 0 0
BITMAP
68
90
90
68
ENDCHAR

STARTCHAR afii9826
ENCODING 226
SWIDTH 600 0
DWIDTH 5 0
BBX 4 7 1 -2
BITMAP
60
90
A0
90
E0
80
80
ENDCHAR

STARTCHAR afii9828
ENCODING 227
SWIDTH 600 0
DWIDTH 5 0
BBX 5 6 0 -2
BITMAP
C8
50
20
20
20
20
ENDCHAR

STARTCHAR afii9829
ENCODING 228
SWIDTH 600 0
DWIDTH 5 0
BBX 4 5 1 0
BITMAP
70
60
90
90
60
ENDCHAR

STARTCHAR afii9830
ENCODING 229
SWIDTH 600 0
DWIDTH 5 0
BBX 4 4 1 0
BITMAP
F0
40
90
60
ENDCHAR

STARTCHAR afii9833
ENCODING 230
SWIDTH 600 0
DWIDTH 5 0
BBX 3 7 1 -2
BITMAP
E0
40
80
80
60
20
40
ENDCHAR

STARTCHAR afii9834
ENCODING 231
SWIDTH 600 0
DWIDTH 5 0
BBX 4 6 0 -2
BITMAP
F0
50
50
D0
10
10
ENDCHAR

STARTCHAR afii9835
ENCODING 232
SWIDTH 600 0
DWIDTH 5 0
BBX 4 5 1 0
BITMAP
60
90
F0
90
60
ENDCHAR

STARTCHAR afii9836
ENCODING 233
SWIDTH 600 0
DWIDTH 5 0
BBX 2 4 2 0
BITMAP
80
80
80
C0
ENDCHAR

STARTCHAR afii9837
ENCODING 234
SWIDTH 600 0
DWIDTH 5 0
BBX 5 4 0 0
BITMAP
D8
60
50
D8
ENDCHAR

STARTCHAR afii9838
ENCODING 235
SWIDTH 600 0
DWIDTH 5 0
BBX 5 5 0 0
BITMAP
E0
20
60
50
D8
ENDCHAR

STARTCHAR afii9839
ENCODING 236
SWIDTH 600 0
DWIDTH 5 0
BBX 5 6 0 -2
BITMAP
D8
50
50
78
40
40
ENDCHAR

STARTCHAR afii9840
ENCODING 237
SWIDTH 600 0
DWIDTH 5 0
BBX 5 4 0 0
BITMAP
D0
48
30
20
ENDCHAR

STARTCHAR afii9841
ENCODING 238
SWIDTH 600 0
DWIDTH 5 0
BBX 3 7 1 -2
BITMAP
E0
80
40
80
60
20
40
ENDCHAR

STARTCHAR afii9842
ENCODING 239
SWIDTH 600 0
DWIDTH 5 0
BBX 4 4 1 0
BITMAP
60
90
90
60
ENDCHAR

STARTCHAR afii9843
ENCODING 240
SWIDTH 600 0
DWIDTH 5 0
BBX 5 4 0 0
BITMAP
F8
50
50
D8
ENDCHAR

STARTCHAR afii9845
ENCODING 241
SWIDTH 600 0
DWIDTH 5 0
BBX 4 6 1 -2
BITMAP
60
90
90
E0
80
80
ENDCHAR

STARTCHAR afii9847
ENCODING 242
SWIDTH 600 0
DWIDTH 5 0
BBX 4 6 1 -2
BITMAP
70
90
80
60
20
40
ENDCHAR

STARTCHAR afii9846
ENCODING 243
SWIDTH 600 0
DWIDTH 5 0
BBX 5 4 0 0
BITMAP
78
90
90
60
ENDCHAR

STARTCHAR afii9848
ENCODING 244
SWIDTH 600 0
DWIDTH 5 0
BBX 3 4 1 0
BITMAP
E0
40
40
60
ENDCHAR

STARTCHAR afii9849
ENCODING 245
SWIDTH 600 0
DWIDTH 5 0
BBX 4 4 1 0
BITMAP
90
90
90
60
ENDCHAR

STARTCHAR afii9850
ENCODING 246
SWIDTH 600 0
DWIDTH 5 0
BBX 5 5 0 -1
BITMAP
50
A8
A8
70
20
ENDCHAR

STARTCHAR afii9851
ENCODING 247
SWIDTH 600 0
DWIDTH 5 0
BBX 5 6 0 -2
BITMAP
C8
50
20
20
50
98
ENDCHAR

STARTCHAR afii9852
ENCODING 248
SWIDTH 600 0
DWIDTH 5 0
BBX 5 7 0 -2
BITMAP
20
A8
A8
A8
70
20
20
ENDCHAR

STARTCHAR afii9853
ENCODING 249
SWIDTH 600 0
DWIDTH 5 0
BBX 5 4 0 0
BITMAP
50
88
A8
50
ENDCHAR

STARTCHAR afii9975
ENCODING 250
SWIDTH 600 0
DWIDTH 5 0
BBX 3 6 1 0
BITMAP
A0
00
40
40
40
60
ENDCHAR

STARTCHAR afii9976
ENCODING 251
SWIDTH 600 0
DWIDTH 5 0
BBX 4 6 1 0
BITMAP
90
00
90
90
90
60
ENDCHAR

STARTCHAR afii9972
ENCODING 252
SWIDTH 600 0
DWIDTH 5 0
BBX 4 7 1 0
BITMAP
20
40
00
60
90
90
60
ENDCHAR

STARTCHAR afii9973
ENCODING 253
SWIDTH 600 0
DWIDTH 5 0
BBX 4 7 1 0
BITMAP
20
40
00
90
90
90
60
ENDCHAR

STARTCHAR afii9974
ENCODING 254
SWIDTH 600 0
DWIDTH 5 0
BBX 5 7 0 0
BITMAP
10
20
00
50
88
A8
50
ENDCHAR
ENDFONT
